<mxfile host="Electron" modified="2024-04-10T07:42:44.370Z" agent="Mozilla/5.0 (Windows NT 10.0; Win64; x64) AppleWebKit/537.36 (KHTML, like Gecko) draw.io/24.1.0 Chrome/120.0.6099.109 Electron/28.1.0 Safari/537.36" etag="JCoP-iHiDrmmt9MsS_kb" version="24.1.0" type="device">
  <diagram id="wrOhlIF0k3vOvgMMfUUx" name="Page-1">
    <mxGraphModel dx="880" dy="532" grid="1" gridSize="10" guides="1" tooltips="1" connect="1" arrows="1" fold="1" page="1" pageScale="1" pageWidth="827" pageHeight="1169" math="0" shadow="0">
      <root>
        <mxCell id="0" />
        <mxCell id="1" parent="0" />
        <mxCell id="Pmuhz_MxlHkOLa46dXON-2" value="F_FX_CURRENCY_RATE" style="swimlane;fontStyle=0;childLayout=stackLayout;horizontal=1;startSize=30;horizontalStack=0;resizeParent=1;resizeParentMax=0;resizeLast=0;collapsible=1;marginBottom=0;" parent="1" vertex="1">
          <mxGeometry x="170" y="192" width="174.18" height="90" as="geometry" />
        </mxCell>
        <mxCell id="Pmuhz_MxlHkOLa46dXON-6" value="CurrentRate" style="text;strokeColor=none;fillColor=none;align=left;verticalAlign=middle;spacingLeft=4;spacingRight=4;overflow=hidden;points=[[0,0.5],[1,0.5]];portConstraint=eastwest;rotatable=0;" parent="Pmuhz_MxlHkOLa46dXON-2" vertex="1">
          <mxGeometry y="30" width="174.18" height="30" as="geometry" />
        </mxCell>
        <mxCell id="FjkLDk-mcn_XOHwuBFcB-1" value="YesterdayNYTimeChange" style="text;strokeColor=none;fillColor=none;align=left;verticalAlign=middle;spacingLeft=4;spacingRight=4;overflow=hidden;points=[[0,0.5],[1,0.5]];portConstraint=eastwest;rotatable=0;" parent="Pmuhz_MxlHkOLa46dXON-2" vertex="1">
          <mxGeometry y="60" width="174.18" height="30" as="geometry" />
        </mxCell>
        <mxCell id="4vlrvuO8_zKgmpV1qPd3-43" value="" style="group" parent="1" vertex="1" connectable="0">
          <mxGeometry x="410.00000000000006" y="202" width="61" height="35" as="geometry" />
        </mxCell>
        <mxCell id="4vlrvuO8_zKgmpV1qPd3-44" value=" " style="ellipse;whiteSpace=wrap;html=1;aspect=fixed;direction=south;" parent="4vlrvuO8_zKgmpV1qPd3-43" vertex="1">
          <mxGeometry x="41" y="6" width="20" height="20" as="geometry" />
        </mxCell>
        <mxCell id="4vlrvuO8_zKgmpV1qPd3-45" value="&lt;font style=&quot;font-size: 11px;&quot;&gt;Currency&lt;br&gt;&lt;/font&gt;" style="text;html=1;align=center;verticalAlign=middle;resizable=0;points=[];autosize=1;strokeColor=none;fillColor=none;fontSize=8;" parent="1" vertex="1">
          <mxGeometry x="433.00000000000006" y="220" width="70" height="30" as="geometry" />
        </mxCell>
        <mxCell id="4vlrvuO8_zKgmpV1qPd3-46" value="" style="endArrow=none;html=1;strokeColor=default;rounded=0;startArrow=none;startFill=0;exitX=0.257;exitY=-0.126;exitDx=0;exitDy=0;exitPerimeter=0;entryX=1.003;entryY=0.181;entryDx=0;entryDy=0;entryPerimeter=0;" parent="1" source="4vlrvuO8_zKgmpV1qPd3-45" target="Pmuhz_MxlHkOLa46dXON-2" edge="1">
          <mxGeometry width="50" height="50" relative="1" as="geometry">
            <mxPoint x="387.7200000000001" y="389.1700000000001" as="sourcePoint" />
            <mxPoint x="310.18" y="237" as="targetPoint" />
          </mxGeometry>
        </mxCell>
        <mxCell id="4vlrvuO8_zKgmpV1qPd3-47" value="" style="html=1;verticalLabelPosition=bottom;labelBackgroundColor=#ffffff;verticalAlign=top;shadow=0;dashed=0;strokeWidth=2;shape=mxgraph.ios7.misc.up;strokeColor=#000000;fillColor=#000000;rotation=90;" parent="1" vertex="1">
          <mxGeometry x="386.00000000000006" y="209" width="12" height="6" as="geometry" />
        </mxCell>
        <mxCell id="4vlrvuO8_zKgmpV1qPd3-48" value="" style="endArrow=none;html=1;rounded=0;fontSize=11;strokeColor=default;strokeWidth=1;entryX=0;entryY=1;entryDx=0;entryDy=0;" parent="1" target="4vlrvuO8_zKgmpV1qPd3-44" edge="1">
          <mxGeometry width="50" height="50" relative="1" as="geometry">
            <mxPoint x="440.00000000000006" y="172" as="sourcePoint" />
            <mxPoint x="410.00000000000006" y="292" as="targetPoint" />
          </mxGeometry>
        </mxCell>
        <mxCell id="4vlrvuO8_zKgmpV1qPd3-49" value="" style="html=1;verticalLabelPosition=bottom;labelBackgroundColor=#ffffff;verticalAlign=top;shadow=0;dashed=0;strokeWidth=2;shape=mxgraph.ios7.misc.up;strokeColor=#000000;fillColor=#000000;rotation=-15;" parent="1" vertex="1">
          <mxGeometry x="441.00000000000006" y="190" width="12" height="6" as="geometry" />
        </mxCell>
        <mxCell id="4vlrvuO8_zKgmpV1qPd3-50" value="" style="endArrow=none;html=1;rounded=0;fontSize=11;strokeColor=default;strokeWidth=1;" parent="1" edge="1">
          <mxGeometry width="50" height="50" relative="1" as="geometry">
            <mxPoint x="440.00000000000006" y="172" as="sourcePoint" />
            <mxPoint x="470.00000000000006" y="172" as="targetPoint" />
          </mxGeometry>
        </mxCell>
        <mxCell id="4vlrvuO8_zKgmpV1qPd3-51" value="" style="endArrow=none;html=1;rounded=0;fontSize=11;strokeColor=default;strokeWidth=1;entryX=-0.007;entryY=0.323;entryDx=0;entryDy=0;entryPerimeter=0;" parent="1" target="4vlrvuO8_zKgmpV1qPd3-44" edge="1">
          <mxGeometry width="50" height="50" relative="1" as="geometry">
            <mxPoint x="490.00000000000006" y="172" as="sourcePoint" />
            <mxPoint x="513.9289321881347" y="220.92893218813475" as="targetPoint" />
          </mxGeometry>
        </mxCell>
        <mxCell id="4vlrvuO8_zKgmpV1qPd3-52" value="" style="html=1;verticalLabelPosition=bottom;labelBackgroundColor=#ffffff;verticalAlign=top;shadow=0;dashed=0;strokeWidth=2;shape=mxgraph.ios7.misc.up;strokeColor=#000000;fillColor=#000000;rotation=40;" parent="1" vertex="1">
          <mxGeometry x="470.00000000000006" y="189" width="12" height="6" as="geometry" />
        </mxCell>
        <mxCell id="4vlrvuO8_zKgmpV1qPd3-53" value="" style="endArrow=none;html=1;rounded=0;fontSize=11;strokeColor=default;strokeWidth=1;" parent="1" edge="1">
          <mxGeometry width="50" height="50" relative="1" as="geometry">
            <mxPoint x="520" y="172" as="sourcePoint" />
            <mxPoint x="490.00000000000006" y="172" as="targetPoint" />
          </mxGeometry>
        </mxCell>
        <mxCell id="4vlrvuO8_zKgmpV1qPd3-57" value="&lt;font style=&quot;font-size: 6px;&quot;&gt;CurrencyDescription&lt;/font&gt;" style="text;html=1;align=center;verticalAlign=middle;resizable=0;points=[];autosize=1;strokeColor=none;fillColor=none;fontSize=11;" parent="1" vertex="1">
          <mxGeometry x="469.00000000000006" y="150" width="80" height="30" as="geometry" />
        </mxCell>
        <mxCell id="4vlrvuO8_zKgmpV1qPd3-58" value="&lt;div&gt;CurrencyName&lt;/div&gt;" style="text;whiteSpace=wrap;html=1;fontSize=6;" parent="1" vertex="1">
          <mxGeometry x="429.00000000000006" y="157" width="57" height="12" as="geometry" />
        </mxCell>
        <mxCell id="4vlrvuO8_zKgmpV1qPd3-61" value=" " style="ellipse;whiteSpace=wrap;html=1;aspect=fixed;direction=west;" parent="1" vertex="1">
          <mxGeometry x="455.99999999999994" y="213" width="10" height="10" as="geometry" />
        </mxCell>
        <mxCell id="4vlrvuO8_zKgmpV1qPd3-63" value="&lt;div&gt;&lt;font style=&quot;font-size: 8px;&quot;&gt;Base Currency&lt;/font&gt;&lt;/div&gt;" style="text;html=1;align=center;verticalAlign=middle;resizable=0;points=[];autosize=1;strokeColor=none;fillColor=none;rotation=15;" parent="1" vertex="1">
          <mxGeometry x="355.99999999999994" y="185" width="80" height="30" as="geometry" />
        </mxCell>
        <mxCell id="4vlrvuO8_zKgmpV1qPd3-64" value="" style="endArrow=none;html=1;strokeColor=default;rounded=0;startArrow=none;startFill=0;exitX=0.258;exitY=0.085;exitDx=0;exitDy=0;exitPerimeter=0;entryX=1;entryY=0.5;entryDx=0;entryDy=0;" parent="1" source="4vlrvuO8_zKgmpV1qPd3-45" target="Pmuhz_MxlHkOLa46dXON-6" edge="1">
          <mxGeometry width="50" height="50" relative="1" as="geometry">
            <mxPoint x="461.18" y="226" as="sourcePoint" />
            <mxPoint x="343.65745999999984" y="264" as="targetPoint" />
          </mxGeometry>
        </mxCell>
        <mxCell id="4vlrvuO8_zKgmpV1qPd3-65" value="" style="html=1;verticalLabelPosition=bottom;labelBackgroundColor=#ffffff;verticalAlign=top;shadow=0;dashed=0;strokeWidth=2;shape=mxgraph.ios7.misc.up;strokeColor=#000000;fillColor=#000000;rotation=90;" parent="1" vertex="1">
          <mxGeometry x="387.00000000000006" y="227" width="12" height="6" as="geometry" />
        </mxCell>
        <mxCell id="4vlrvuO8_zKgmpV1qPd3-66" value="&lt;div&gt;&lt;font style=&quot;font-size: 8px;&quot;&gt;Quote Currency&lt;/font&gt;&lt;/div&gt;" style="text;html=1;align=center;verticalAlign=middle;resizable=0;points=[];autosize=1;strokeColor=none;fillColor=none;rotation=0;" parent="1" vertex="1">
          <mxGeometry x="355.99999999999994" y="225" width="80" height="30" as="geometry" />
        </mxCell>
        <mxCell id="vlyZZgfpol20_4RLK0qZ-2" value="Text" style="text;html=1;align=center;verticalAlign=middle;resizable=0;points=[];autosize=1;fontColor=none;noLabel=1;" parent="1" vertex="1">
          <mxGeometry x="102" y="284" width="50" height="30" as="geometry" />
        </mxCell>
        <mxCell id="vlyZZgfpol20_4RLK0qZ-3" value="Text" style="text;html=1;align=center;verticalAlign=middle;resizable=0;points=[];autosize=1;strokeColor=none;fillColor=none;fontColor=none;noLabel=1;" parent="1" vertex="1">
          <mxGeometry x="532" y="124" width="50" height="30" as="geometry" />
        </mxCell>
      </root>
    </mxGraphModel>
  </diagram>
</mxfile>
